name ./resultDataOpenSim/trcMotMarkerGrf/sub09/grf-04-02.mot
datacolumns 19
datarows 12
range 1.47600000 1.52000000
endheader

                time	     ground_force_vx	     ground_force_vy	     ground_force_vz	     ground_force_px	     ground_force_py	     ground_force_pz	   l_ground_force_vx	   l_ground_force_vy	   l_ground_force_vz	   l_ground_force_px	   l_ground_force_py	   l_ground_force_pz	     ground_torque_x	     ground_torque_y	     ground_torque_z	   l_ground_torque_x	   l_ground_torque_y	   l_ground_torque_z	
          1.47600000	        -29.51185747	        467.58400805	         -3.73667273	          1.06847800	          0.00000000	          0.10091900	          0.00000000	          0.00000000	          0.00000000	          0.00000000	          0.00000000	          0.00000000	          0.00000000	          1.63552858	          0.00000000	          0.00000000	          0.00000000	          0.00000000	
          1.48000000	        -31.91934584	        466.95869183	         -5.08648964	          1.06949679	          0.00000000	          0.10077256	          0.00000000	          0.00000000	          0.00000000	          0.00000000	          0.00000000	          0.00000000	          0.00000000	          1.67916153	          0.00000000	          0.00000000	          0.00000000	          0.00000000	
          1.48400000	        -32.85947920	        466.28212436	         -7.47676056	          1.07028465	          0.00000000	          0.10073166	          0.00000000	          0.00000000	          0.00000000	          0.00000000	          0.00000000	          0.00000000	          0.00000000	          1.56595597	          0.00000000	          0.00000000	          0.00000000	          0.00000000	
          1.48800000	        -31.80102697	        465.58982016	        -10.30269137	          1.07074932	          0.00000000	          0.10077755	          0.00000000	          0.00000000	          0.00000000	          0.00000000	          0.00000000	          0.00000000	          0.00000000	          1.33019203	          0.00000000	          0.00000000	          0.00000000	          0.00000000	
          1.49200000	        -28.76729668	        464.93619378	        -12.89747042	          1.07088439	          0.00000000	          0.10087741	          0.00000000	          0.00000000	          0.00000000	          0.00000000	          0.00000000	          0.00000000	          0.00000000	          1.03392781	          0.00000000	          0.00000000	          0.00000000	          0.00000000	
          1.49600000	        -24.29182053	        464.39858495	        -14.67266167	          1.07076262	          0.00000000	          0.10098432	          0.00000000	          0.00000000	          0.00000000	          0.00000000	          0.00000000	          0.00000000	          0.00000000	          0.75291540	          0.00000000	          0.00000000	          0.00000000	          0.00000000	
          1.50000000	        -19.24254273	        464.08018572	        -15.24418823	          1.07052694	          0.00000000	          0.10105429	          0.00000000	          0.00000000	          0.00000000	          0.00000000	          0.00000000	          0.00000000	          0.00000000	          0.55991121	          0.00000000	          0.00000000	          0.00000000	          0.00000000	
          1.50400000	        -14.58825433	        464.09075575	        -14.50959817	          1.07032597	          0.00000000	          0.10105436	          0.00000000	          0.00000000	          0.00000000	          0.00000000	          0.00000000	          0.00000000	          0.00000000	          0.50937931	          0.00000000	          0.00000000	          0.00000000	          0.00000000	
          1.50800000	        -11.15419120	        464.51687642	        -12.64087383	          1.07028819	          0.00000000	          0.10098558	          0.00000000	          0.00000000	          0.00000000	          0.00000000	          0.00000000	          0.00000000	          0.00000000	          0.62639956	          0.00000000	          0.00000000	          0.00000000	          0.00000000	
          1.51200000	         -9.40186310	        465.40979422	        -10.00042291	          1.07047464	          0.00000000	          0.10085356	          0.00000000	          0.00000000	          0.00000000	          0.00000000	          0.00000000	          0.00000000	          0.00000000	          0.90134302	          0.00000000	          0.00000000	          0.00000000	          0.00000000	
          1.51600000	         -9.29745635	        466.77515757	         -7.06050080	          1.07085900	          0.00000000	          0.10065771	          0.00000000	          0.00000000	          0.00000000	          0.00000000	          0.00000000	          0.00000000	          0.00000000	          1.29105361	          0.00000000	          0.00000000	          0.00000000	          0.00000000	
          1.52000000	        -10.33101831	        468.55398791	         -4.35497278	          1.07135254	          0.00000000	          0.10042602	          0.00000000	          0.00000000	          0.00000000	          0.00000000	          0.00000000	          0.00000000	          0.00000000	          1.72674120	          0.00000000	          0.00000000	          0.00000000	          0.00000000	
